<?xml version="1.0" encoding="iso-8859-1"?>
<!-- Generator: Adobe Illustrator 19.0.0, SVG Export Plug-In . SVG Version: 6.00 Build 0)  -->
<svg version="1.1" id="Layer_1" xmlns="http://www.w3.org/2000/svg" xmlns:xlink="http://www.w3.org/1999/xlink" x="0px" y="0px"
	 viewBox="0 0 512 512" style="enable-background:new 0 0 512 512;" xml:space="preserve">
<path style="fill:#806749;" d="M454.428,38.028c-19.529-19.529-51.342-19.53-70.871,0l-368.91,368.91
	c-19.529,19.529-19.529,51.343,0,70.871s51.343,19.529,70.871,0l368.91-368.911C473.956,89.369,473.956,57.556,454.428,38.028z"/>
<path style="fill:#5F4D37;" d="M14.682,477.842c19.532,19.494,51.318,19.483,70.836-0.033l368.91-368.911
	c19.517-19.517,19.527-51.303,0.035-70.834l-0.003,0.001L14.684,477.839L14.682,477.842z"/>
<path style="fill:#E0E0E2;" d="M343.877,8.229c-6.525-6.525-17.096-6.525-23.621,0l-78.743,78.737
	c-3.132,3.133-4.893,7.384-4.893,11.81c0,4.427,1.762,8.678,4.893,11.81l91.255,91.265c0.566,1.055,1.262,2.066,2.088,3.001
	c3.507,3.937,6.868,8.058,10.223,12.159c60.814,76.594,84.31,175.592,64.42,271.556c-1.545,7.46,2.148,15.018,8.988,18.379
	c2.349,1.164,4.867,1.718,7.362,1.718c4.753,0,9.424-2.033,12.681-5.819c87.65-102.064,104.058-260.26,9.815-386.48
	C433.235,96.131,407.316,71.678,343.877,8.229z"/>
<path style="fill:#C6C5CA;" d="M281.291,47.793L241.82,87.262c-3.133,3.133-4.894,7.384-4.894,11.81s1.762,8.678,4.894,11.81
	c76.197,76.205,209.075,179.739,167.985,377.981c-1.545,7.46,2.148,15.018,8.988,18.379c0.063,0.031,0.131,0.039,0.195,0.069
	C537.619,261.691,322.195,89.746,281.291,47.793z"/>
<g>
</g>
<g>
</g>
<g>
</g>
<g>
</g>
<g>
</g>
<g>
</g>
<g>
</g>
<g>
</g>
<g>
</g>
<g>
</g>
<g>
</g>
<g>
</g>
<g>
</g>
<g>
</g>
<g>
</g>
</svg>
